<mxfile host="app.diagrams.net" modified="2020-07-15T14:09:30.038Z" agent="5.0 (Windows NT 10.0; WOW64) AppleWebKit/537.36 (KHTML, like Gecko) Chrome/77.0.3865.75 Safari/537.36" etag="UtNVnkNz6GF7IRbYxtBo" version="13.4.3" type="github" pages="5">
  <diagram name="diagraqmaGeneral_Ahorros" id="822b0af5-4adb-64df-f703-e8dfc1f81529">
    <mxGraphModel dx="868" dy="433" grid="1" gridSize="10" guides="1" tooltips="1" connect="1" arrows="1" fold="1" page="1" pageScale="1" pageWidth="1100" pageHeight="850" background="#ffffff" math="0" shadow="0">
      <root>
        <mxCell id="0" />
        <mxCell id="1" parent="0" />
        <mxCell id="4Zwn-9vj8W-YudjmupSU-18" style="edgeStyle=orthogonalEdgeStyle;rounded=0;orthogonalLoop=1;jettySize=auto;html=1;entryX=0.96;entryY=0.7;entryDx=0;entryDy=0;entryPerimeter=0;" edge="1" parent="1" source="4Zwn-9vj8W-YudjmupSU-13" target="4Zwn-9vj8W-YudjmupSU-1">
          <mxGeometry relative="1" as="geometry">
            <Array as="points">
              <mxPoint x="423" y="693" />
            </Array>
          </mxGeometry>
        </mxCell>
        <mxCell id="4Zwn-9vj8W-YudjmupSU-22" value="" style="edgeStyle=orthogonalEdgeStyle;rounded=0;orthogonalLoop=1;jettySize=auto;html=1;" edge="1" parent="1" source="4Zwn-9vj8W-YudjmupSU-13">
          <mxGeometry relative="1" as="geometry">
            <mxPoint x="567.5" y="915" as="targetPoint" />
          </mxGeometry>
        </mxCell>
        <mxCell id="4Zwn-9vj8W-YudjmupSU-13" value="" style="rounded=1;whiteSpace=wrap;html=1;fillColor=#fff2cc;strokeColor=#d6b656;" vertex="1" parent="1">
          <mxGeometry x="435" y="550" width="265" height="285" as="geometry" />
        </mxCell>
        <mxCell id="4Zwn-9vj8W-YudjmupSU-4" value="" style="whiteSpace=wrap;html=1;aspect=fixed;" vertex="1" parent="1">
          <mxGeometry x="95" y="530" width="150" height="150" as="geometry" />
        </mxCell>
        <mxCell id="4Zwn-9vj8W-YudjmupSU-7" style="edgeStyle=orthogonalEdgeStyle;rounded=0;orthogonalLoop=1;jettySize=auto;html=1;entryX=1;entryY=0.5;entryDx=0;entryDy=0;exitX=0.07;exitY=0.4;exitDx=0;exitDy=0;exitPerimeter=0;" edge="1" parent="1" source="4Zwn-9vj8W-YudjmupSU-1" target="4Zwn-9vj8W-YudjmupSU-4">
          <mxGeometry relative="1" as="geometry">
            <Array as="points">
              <mxPoint x="344" y="682" />
              <mxPoint x="344" y="605" />
            </Array>
          </mxGeometry>
        </mxCell>
        <mxCell id="4Zwn-9vj8W-YudjmupSU-1" value="" style="ellipse;shape=cloud;whiteSpace=wrap;html=1;" vertex="1" parent="1">
          <mxGeometry x="270" y="637.5" width="148.8" height="110" as="geometry" />
        </mxCell>
        <mxCell id="r9bPH-oAhu9I5OndgDbb-49" value="" style="rounded=0;whiteSpace=wrap;html=1;shadow=0;glass=0;comic=0;" parent="1" vertex="1">
          <mxGeometry x="855.55" y="270" width="120" height="150" as="geometry" />
        </mxCell>
        <mxCell id="s4Td4Mh8RDFdJ8xVl4KL-1" value="AtenciÃ³n al Cliente" style="verticalLabelPosition=bottom;aspect=fixed;html=1;verticalAlign=top;strokeColor=none;align=center;outlineConnect=0;shape=mxgraph.citrix.users;" parent="1" vertex="1">
          <mxGeometry x="130" y="265" width="62.4" height="60" as="geometry" />
        </mxCell>
        <mxCell id="s4Td4Mh8RDFdJ8xVl4KL-15" style="edgeStyle=orthogonalEdgeStyle;rounded=0;orthogonalLoop=1;jettySize=auto;html=1;entryX=0;entryY=0.625;entryDx=0;entryDy=0;entryPerimeter=0;startArrow=classicThin;startFill=1;" parent="1" source="s4Td4Mh8RDFdJ8xVl4KL-3" target="s4Td4Mh8RDFdJ8xVl4KL-14" edge="1">
          <mxGeometry relative="1" as="geometry" />
        </mxCell>
        <mxCell id="s4Td4Mh8RDFdJ8xVl4KL-3" value="Servidor de componentes Syscard" style="swimlane;fillColor=#cdeb8b;shadow=0;comic=0;glass=0;rounded=1;strokeColor=#36393d;" parent="1" vertex="1">
          <mxGeometry x="430" y="170" width="340" height="270" as="geometry">
            <mxRectangle x="370" y="260" width="180" height="23" as="alternateBounds" />
          </mxGeometry>
        </mxCell>
        <mxCell id="s4Td4Mh8RDFdJ8xVl4KL-20" style="edgeStyle=orthogonalEdgeStyle;rounded=1;orthogonalLoop=1;jettySize=auto;html=1;startArrow=classicThin;startFill=1;curved=1;" parent="s4Td4Mh8RDFdJ8xVl4KL-3" source="s4Td4Mh8RDFdJ8xVl4KL-4" target="s4Td4Mh8RDFdJ8xVl4KL-18" edge="1">
          <mxGeometry relative="1" as="geometry">
            <Array as="points">
              <mxPoint x="96" y="50" />
            </Array>
          </mxGeometry>
        </mxCell>
        <mxCell id="r9bPH-oAhu9I5OndgDbb-28" style="edgeStyle=orthogonalEdgeStyle;rounded=0;orthogonalLoop=1;jettySize=auto;html=1;" parent="s4Td4Mh8RDFdJ8xVl4KL-3" source="s4Td4Mh8RDFdJ8xVl4KL-4" target="s4Td4Mh8RDFdJ8xVl4KL-19" edge="1">
          <mxGeometry relative="1" as="geometry" />
        </mxCell>
        <mxCell id="s4Td4Mh8RDFdJ8xVl4KL-4" value="&lt;b&gt;Syscard&lt;/b&gt;" style="verticalLabelPosition=bottom;aspect=fixed;html=1;verticalAlign=top;strokeColor=none;align=center;outlineConnect=0;shape=mxgraph.citrix.command_center;" parent="s4Td4Mh8RDFdJ8xVl4KL-3" vertex="1">
          <mxGeometry x="60" y="100" width="71.57" height="91" as="geometry" />
        </mxCell>
        <mxCell id="s4Td4Mh8RDFdJ8xVl4KL-18" value="BatchServer.exe" style="verticalLabelPosition=bottom;aspect=fixed;html=1;verticalAlign=top;strokeColor=none;align=center;outlineConnect=0;shape=mxgraph.citrix.process;" parent="s4Td4Mh8RDFdJ8xVl4KL-3" vertex="1">
          <mxGeometry x="230" y="30" width="33.55" height="40" as="geometry" />
        </mxCell>
        <mxCell id="s4Td4Mh8RDFdJ8xVl4KL-19" value="transserver.exe" style="verticalLabelPosition=bottom;aspect=fixed;html=1;verticalAlign=top;strokeColor=none;align=center;outlineConnect=0;shape=mxgraph.citrix.process;" parent="s4Td4Mh8RDFdJ8xVl4KL-3" vertex="1">
          <mxGeometry x="230" y="125.5" width="33.55" height="40" as="geometry" />
        </mxCell>
        <mxCell id="r9bPH-oAhu9I5OndgDbb-47" value="" style="shadow=0;dashed=0;html=1;strokeColor=none;fillColor=#4D29FF;labelPosition=center;verticalLabelPosition=bottom;verticalAlign=top;align=center;outlineConnect=0;shape=mxgraph.veeam.ms_windows;rounded=1;glass=0;comic=0;" parent="s4Td4Mh8RDFdJ8xVl4KL-3" vertex="1">
          <mxGeometry y="20" width="30" height="30" as="geometry" />
        </mxCell>
        <mxCell id="s4Td4Mh8RDFdJ8xVl4KL-33" style="edgeStyle=orthogonalEdgeStyle;rounded=1;orthogonalLoop=1;jettySize=auto;html=1;startArrow=classicThin;startFill=1;" parent="1" source="s4Td4Mh8RDFdJ8xVl4KL-14" target="s4Td4Mh8RDFdJ8xVl4KL-32" edge="1">
          <mxGeometry relative="1" as="geometry" />
        </mxCell>
        <mxCell id="s4Td4Mh8RDFdJ8xVl4KL-14" value="&lt;b&gt;TCREDITOPCI&lt;/b&gt;&lt;br&gt;" style="verticalLabelPosition=bottom;aspect=fixed;html=1;verticalAlign=top;strokeColor=none;align=center;outlineConnect=0;shape=mxgraph.citrix.database_server;" parent="1" vertex="1">
          <mxGeometry x="880" y="300" width="71.11" height="80" as="geometry" />
        </mxCell>
        <mxCell id="s4Td4Mh8RDFdJ8xVl4KL-23" style="edgeStyle=orthogonalEdgeStyle;rounded=1;orthogonalLoop=1;jettySize=auto;html=1;entryX=0.028;entryY=0.451;entryDx=0;entryDy=0;entryPerimeter=0;startArrow=classicThin;startFill=1;" parent="1" target="s4Td4Mh8RDFdJ8xVl4KL-4" edge="1">
          <mxGeometry relative="1" as="geometry">
            <mxPoint x="344" y="380" as="sourcePoint" />
            <Array as="points">
              <mxPoint x="390" y="380" />
              <mxPoint x="390" y="311" />
            </Array>
          </mxGeometry>
        </mxCell>
        <mxCell id="s4Td4Mh8RDFdJ8xVl4KL-32" value="nts_tarjcred" style="verticalLabelPosition=bottom;aspect=fixed;html=1;verticalAlign=top;strokeColor=none;align=center;outlineConnect=0;shape=mxgraph.citrix.database;fillColor=#CCE5FF;" parent="1" vertex="1">
          <mxGeometry x="894.3000000000001" y="480" width="42.5" height="50" as="geometry" />
        </mxCell>
        <mxCell id="r9bPH-oAhu9I5OndgDbb-10" value="" style="edgeStyle=orthogonalEdgeStyle;rounded=0;orthogonalLoop=1;jettySize=auto;html=1;startArrow=classicThin;startFill=1;" parent="1" source="s4Td4Mh8RDFdJ8xVl4KL-34" target="r9bPH-oAhu9I5OndgDbb-9" edge="1">
          <mxGeometry relative="1" as="geometry" />
        </mxCell>
        <mxCell id="4Zwn-9vj8W-YudjmupSU-17" style="edgeStyle=orthogonalEdgeStyle;rounded=0;orthogonalLoop=1;jettySize=auto;html=1;" edge="1" parent="1" source="s4Td4Mh8RDFdJ8xVl4KL-34" target="4Zwn-9vj8W-YudjmupSU-15">
          <mxGeometry relative="1" as="geometry" />
        </mxCell>
        <mxCell id="s4Td4Mh8RDFdJ8xVl4KL-34" value="&lt;b&gt;BA-BUS&lt;/b&gt;&lt;br&gt;" style="verticalLabelPosition=bottom;aspect=fixed;html=1;verticalAlign=top;strokeColor=none;align=center;outlineConnect=0;shape=mxgraph.citrix.license_server;fillColor=#CCE5FF;" parent="1" vertex="1">
          <mxGeometry x="493.57" y="585" width="65" height="85" as="geometry" />
        </mxCell>
        <mxCell id="r9bPH-oAhu9I5OndgDbb-9" value="&lt;b&gt;CoreBanking&lt;/b&gt;" style="verticalLabelPosition=bottom;aspect=fixed;html=1;verticalAlign=top;strokeColor=none;align=center;outlineConnect=0;shape=mxgraph.citrix.license_server;fillColor=#CCE5FF;" parent="1" vertex="1">
          <mxGeometry x="730" y="585" width="65" height="85" as="geometry" />
        </mxCell>
        <mxCell id="r9bPH-oAhu9I5OndgDbb-22" style="edgeStyle=orthogonalEdgeStyle;rounded=0;orthogonalLoop=1;jettySize=auto;html=1;" parent="1" source="r9bPH-oAhu9I5OndgDbb-14" target="s4Td4Mh8RDFdJ8xVl4KL-1" edge="1">
          <mxGeometry relative="1" as="geometry">
            <Array as="points">
              <mxPoint x="311" y="300" />
            </Array>
          </mxGeometry>
        </mxCell>
        <mxCell id="r9bPH-oAhu9I5OndgDbb-23" style="edgeStyle=orthogonalEdgeStyle;rounded=0;orthogonalLoop=1;jettySize=auto;html=1;" parent="1" source="r9bPH-oAhu9I5OndgDbb-14" target="r9bPH-oAhu9I5OndgDbb-21" edge="1">
          <mxGeometry relative="1" as="geometry">
            <Array as="points">
              <mxPoint x="311" y="455" />
            </Array>
          </mxGeometry>
        </mxCell>
        <mxCell id="r9bPH-oAhu9I5OndgDbb-14" value="Interfaz Syscard" style="shadow=0;dashed=0;html=1;strokeColor=none;fillColor=#4495D1;labelPosition=center;verticalLabelPosition=bottom;verticalAlign=top;align=center;outlineConnect=0;shape=mxgraph.veeam.2d.file_system_browser;" parent="1" vertex="1">
          <mxGeometry x="280" y="350" width="62.4" height="57.4" as="geometry" />
        </mxCell>
        <mxCell id="r9bPH-oAhu9I5OndgDbb-21" value="Operadores" style="verticalLabelPosition=bottom;aspect=fixed;html=1;verticalAlign=top;strokeColor=none;align=center;outlineConnect=0;shape=mxgraph.citrix.users;" parent="1" vertex="1">
          <mxGeometry x="130" y="425" width="62.4" height="60" as="geometry" />
        </mxCell>
        <mxCell id="r9bPH-oAhu9I5OndgDbb-43" style="edgeStyle=orthogonalEdgeStyle;curved=1;rounded=0;orthogonalLoop=1;jettySize=auto;html=1;" parent="1" source="r9bPH-oAhu9I5OndgDbb-39" target="s4Td4Mh8RDFdJ8xVl4KL-34" edge="1">
          <mxGeometry relative="1" as="geometry" />
        </mxCell>
        <mxCell id="r9bPH-oAhu9I5OndgDbb-39" value="" style="shape=providedRequiredInterface;html=1;verticalLabelPosition=bottom;rounded=1;shadow=0;glass=0;comic=0;rotation=90;fillColor=#3333FF;strokeColor=#36393d;" parent="1" vertex="1">
          <mxGeometry x="516" y="470" width="20" height="20" as="geometry" />
        </mxCell>
        <mxCell id="r9bPH-oAhu9I5OndgDbb-42" style="edgeStyle=orthogonalEdgeStyle;curved=1;rounded=0;orthogonalLoop=1;jettySize=auto;html=1;entryX=0;entryY=0.5;entryDx=0;entryDy=0;entryPerimeter=0;" parent="1" source="s4Td4Mh8RDFdJ8xVl4KL-4" target="r9bPH-oAhu9I5OndgDbb-39" edge="1">
          <mxGeometry relative="1" as="geometry" />
        </mxCell>
        <mxCell id="r9bPH-oAhu9I5OndgDbb-44" value="Servicio" style="text;html=1;strokeColor=none;fillColor=none;align=center;verticalAlign=middle;whiteSpace=wrap;rounded=0;shadow=0;glass=0;comic=0;" parent="1" vertex="1">
          <mxGeometry x="540" y="470" width="40" height="20" as="geometry" />
        </mxCell>
        <mxCell id="r9bPH-oAhu9I5OndgDbb-50" value="" style="shadow=0;dashed=0;html=1;strokeColor=none;fillColor=#4D29FF;labelPosition=center;verticalLabelPosition=bottom;verticalAlign=top;align=center;outlineConnect=0;shape=mxgraph.veeam.ms_windows;rounded=1;glass=0;comic=0;" parent="1" vertex="1">
          <mxGeometry x="855.55" y="270" width="30" height="30" as="geometry" />
        </mxCell>
        <mxCell id="4Zwn-9vj8W-YudjmupSU-2" value="" style="shape=mxgraph.signs.travel.bank;html=1;fillColor=#f8cecc;strokeColor=#b85450;verticalLabelPosition=bottom;verticalAlign=top;align=center;" vertex="1" parent="1">
          <mxGeometry x="329.4" y="670" width="50" height="40" as="geometry" />
        </mxCell>
        <mxCell id="4Zwn-9vj8W-YudjmupSU-3" value="" style="verticalLabelPosition=bottom;aspect=fixed;html=1;verticalAlign=top;strokeColor=none;align=center;outlineConnect=0;shape=mxgraph.citrix.government;" vertex="1" parent="1">
          <mxGeometry x="124.23" y="540.5" width="91.54" height="40" as="geometry" />
        </mxCell>
        <mxCell id="4Zwn-9vj8W-YudjmupSU-5" value="" style="verticalLabelPosition=bottom;aspect=fixed;html=1;verticalAlign=top;strokeColor=none;align=center;outlineConnect=0;shape=mxgraph.citrix.government;" vertex="1" parent="1">
          <mxGeometry x="124.23000000000002" y="585" width="91.54" height="40" as="geometry" />
        </mxCell>
        <mxCell id="4Zwn-9vj8W-YudjmupSU-6" value="" style="verticalLabelPosition=bottom;aspect=fixed;html=1;verticalAlign=top;strokeColor=none;align=center;outlineConnect=0;shape=mxgraph.citrix.government;" vertex="1" parent="1">
          <mxGeometry x="115.43000000000002" y="631" width="91.54" height="40" as="geometry" />
        </mxCell>
        <mxCell id="4Zwn-9vj8W-YudjmupSU-11" value="Otras Instituciones Financieras" style="text;html=1;strokeColor=none;fillColor=none;align=center;verticalAlign=middle;whiteSpace=wrap;rounded=0;" vertex="1" parent="1">
          <mxGeometry x="111.2" y="690" width="100" height="20" as="geometry" />
        </mxCell>
        <mxCell id="4Zwn-9vj8W-YudjmupSU-12" value="Banco Central del Ecuador" style="text;html=1;strokeColor=none;fillColor=none;align=center;verticalAlign=middle;whiteSpace=wrap;rounded=0;" vertex="1" parent="1">
          <mxGeometry x="304.4" y="750" width="100" height="20" as="geometry" />
        </mxCell>
        <mxCell id="4Zwn-9vj8W-YudjmupSU-14" value="dbESB" style="verticalLabelPosition=bottom;aspect=fixed;html=1;verticalAlign=top;strokeColor=none;align=center;outlineConnect=0;shape=mxgraph.citrix.database;fillColor=#CCE5FF;" vertex="1" parent="1">
          <mxGeometry x="620" y="735" width="42.5" height="50" as="geometry" />
        </mxCell>
        <mxCell id="4Zwn-9vj8W-YudjmupSU-16" style="edgeStyle=orthogonalEdgeStyle;rounded=0;orthogonalLoop=1;jettySize=auto;html=1;" edge="1" parent="1" source="4Zwn-9vj8W-YudjmupSU-15" target="4Zwn-9vj8W-YudjmupSU-14">
          <mxGeometry relative="1" as="geometry" />
        </mxCell>
        <mxCell id="4Zwn-9vj8W-YudjmupSU-20" value="" style="edgeStyle=orthogonalEdgeStyle;rounded=0;orthogonalLoop=1;jettySize=auto;html=1;" edge="1" parent="1" source="4Zwn-9vj8W-YudjmupSU-15">
          <mxGeometry relative="1" as="geometry">
            <mxPoint x="526.065" y="880" as="targetPoint" />
          </mxGeometry>
        </mxCell>
        <mxCell id="4Zwn-9vj8W-YudjmupSU-15" value="&lt;b&gt;TCREDITO&lt;/b&gt;" style="verticalLabelPosition=bottom;aspect=fixed;html=1;verticalAlign=top;strokeColor=none;align=center;outlineConnect=0;shape=mxgraph.citrix.database_server;" vertex="1" parent="1">
          <mxGeometry x="490.51" y="720" width="71.11" height="80" as="geometry" />
        </mxCell>
      </root>
    </mxGraphModel>
  </diagram>
  <diagram id="g9L_WdL4enBlcv-kKfXP" name="diagramaEspecifico">
    <mxGraphModel dx="868" dy="1602" grid="1" gridSize="10" guides="1" tooltips="1" connect="1" arrows="1" fold="1" page="1" pageScale="1" pageWidth="827" pageHeight="1169" math="0" shadow="0">
      <root>
        <mxCell id="TTJFUgVjda8H5F1yxA_P-0" />
        <mxCell id="TTJFUgVjda8H5F1yxA_P-1" parent="TTJFUgVjda8H5F1yxA_P-0" />
        <mxCell id="TTJFUgVjda8H5F1yxA_P-7" style="edgeStyle=orthogonalEdgeStyle;rounded=1;orthogonalLoop=1;jettySize=auto;html=1;startArrow=classicThin;startFill=1;fontSize=14;" parent="TTJFUgVjda8H5F1yxA_P-1" source="TTJFUgVjda8H5F1yxA_P-2" target="TTJFUgVjda8H5F1yxA_P-6" edge="1">
          <mxGeometry relative="1" as="geometry" />
        </mxCell>
        <mxCell id="TTJFUgVjda8H5F1yxA_P-2" value="Operador" style="verticalLabelPosition=bottom;aspect=fixed;html=1;verticalAlign=top;strokeColor=none;align=center;outlineConnect=0;shape=mxgraph.citrix.users;fillColor=#00AAFF;fontSize=14;" parent="TTJFUgVjda8H5F1yxA_P-1" vertex="1">
          <mxGeometry x="48" y="310" width="64.5" height="55" as="geometry" />
        </mxCell>
        <mxCell id="TTJFUgVjda8H5F1yxA_P-34" style="edgeStyle=orthogonalEdgeStyle;rounded=1;orthogonalLoop=1;jettySize=auto;html=1;startArrow=none;startFill=0;fontSize=14;" parent="TTJFUgVjda8H5F1yxA_P-1" source="TTJFUgVjda8H5F1yxA_P-3" target="TTJFUgVjda8H5F1yxA_P-30" edge="1">
          <mxGeometry relative="1" as="geometry">
            <Array as="points" />
          </mxGeometry>
        </mxCell>
        <mxCell id="TTJFUgVjda8H5F1yxA_P-3" value="&lt;b&gt;Interfaz Syscard&lt;/b&gt;" style="verticalLabelPosition=bottom;aspect=fixed;html=1;verticalAlign=top;strokeColor=none;align=center;outlineConnect=0;shape=mxgraph.citrix.desktop;fillColor=#00AAFF;fontSize=14;" parent="TTJFUgVjda8H5F1yxA_P-1" vertex="1">
          <mxGeometry x="180" y="-188.25" width="64.93" height="71.5" as="geometry" />
        </mxCell>
        <mxCell id="TTJFUgVjda8H5F1yxA_P-33" style="edgeStyle=orthogonalEdgeStyle;rounded=1;orthogonalLoop=1;jettySize=auto;html=1;startArrow=none;startFill=0;fontSize=14;" parent="TTJFUgVjda8H5F1yxA_P-1" source="TTJFUgVjda8H5F1yxA_P-5" target="TTJFUgVjda8H5F1yxA_P-3" edge="1">
          <mxGeometry relative="1" as="geometry" />
        </mxCell>
        <mxCell id="TTJFUgVjda8H5F1yxA_P-5" value="" style="verticalLabelPosition=bottom;aspect=fixed;html=1;verticalAlign=top;strokeColor=none;align=center;outlineConnect=0;shape=mxgraph.citrix.users;fillColor=#00AAFF;fontSize=14;" parent="TTJFUgVjda8H5F1yxA_P-1" vertex="1">
          <mxGeometry x="20" y="-180" width="64.5" height="55" as="geometry" />
        </mxCell>
        <mxCell id="TTJFUgVjda8H5F1yxA_P-9" style="edgeStyle=orthogonalEdgeStyle;rounded=1;orthogonalLoop=1;jettySize=auto;html=1;startArrow=classicThin;startFill=1;fontSize=14;" parent="TTJFUgVjda8H5F1yxA_P-1" source="TTJFUgVjda8H5F1yxA_P-6" target="TTJFUgVjda8H5F1yxA_P-8" edge="1">
          <mxGeometry relative="1" as="geometry" />
        </mxCell>
        <mxCell id="TTJFUgVjda8H5F1yxA_P-6" value="&lt;b&gt;Interfaz Syscard&lt;/b&gt;" style="verticalLabelPosition=bottom;aspect=fixed;html=1;verticalAlign=top;strokeColor=none;align=center;outlineConnect=0;shape=mxgraph.citrix.desktop;fillColor=#00AAFF;fontSize=14;" parent="TTJFUgVjda8H5F1yxA_P-1" vertex="1">
          <mxGeometry x="190" y="301.75" width="64.93" height="71.5" as="geometry" />
        </mxCell>
        <mxCell id="TTJFUgVjda8H5F1yxA_P-11" style="edgeStyle=orthogonalEdgeStyle;rounded=1;orthogonalLoop=1;jettySize=auto;html=1;startArrow=none;startFill=0;fontSize=14;" parent="TTJFUgVjda8H5F1yxA_P-1" source="TTJFUgVjda8H5F1yxA_P-8" target="TTJFUgVjda8H5F1yxA_P-10" edge="1">
          <mxGeometry relative="1" as="geometry" />
        </mxCell>
        <mxCell id="TTJFUgVjda8H5F1yxA_P-8" value="&lt;b&gt;Servidor de Componentes&lt;/b&gt;&lt;br&gt;Syscards 10.16.0.21" style="verticalLabelPosition=bottom;aspect=fixed;html=1;verticalAlign=top;strokeColor=none;align=center;outlineConnect=0;shape=mxgraph.citrix.command_center;fillColor=#00AAFF;fontSize=14;" parent="TTJFUgVjda8H5F1yxA_P-1" vertex="1">
          <mxGeometry x="350" y="290" width="75.5" height="96" as="geometry" />
        </mxCell>
        <mxCell id="TTJFUgVjda8H5F1yxA_P-13" value="" style="edgeStyle=orthogonalEdgeStyle;rounded=1;orthogonalLoop=1;jettySize=auto;html=1;startArrow=none;startFill=0;fontSize=14;" parent="TTJFUgVjda8H5F1yxA_P-1" source="TTJFUgVjda8H5F1yxA_P-10" target="TTJFUgVjda8H5F1yxA_P-12" edge="1">
          <mxGeometry relative="1" as="geometry">
            <Array as="points">
              <mxPoint x="556" y="390" />
            </Array>
          </mxGeometry>
        </mxCell>
        <mxCell id="TTJFUgVjda8H5F1yxA_P-10" value="&lt;b&gt;BatchServer.exe&lt;/b&gt;" style="verticalLabelPosition=bottom;aspect=fixed;html=1;verticalAlign=top;strokeColor=none;align=center;outlineConnect=0;shape=mxgraph.citrix.process;fillColor=#00AAFF;fontSize=14;" parent="TTJFUgVjda8H5F1yxA_P-1" vertex="1">
          <mxGeometry x="530" y="260" width="52" height="62" as="geometry" />
        </mxCell>
        <mxCell id="TTJFUgVjda8H5F1yxA_P-19" style="edgeStyle=orthogonalEdgeStyle;rounded=1;orthogonalLoop=1;jettySize=auto;html=1;startArrow=none;startFill=0;fontSize=14;curved=1;" parent="TTJFUgVjda8H5F1yxA_P-1" source="TTJFUgVjda8H5F1yxA_P-12" target="TTJFUgVjda8H5F1yxA_P-17" edge="1">
          <mxGeometry relative="1" as="geometry">
            <Array as="points">
              <mxPoint x="650" y="441" />
              <mxPoint x="650" y="350" />
            </Array>
          </mxGeometry>
        </mxCell>
        <mxCell id="TTJFUgVjda8H5F1yxA_P-12" value="&lt;b&gt;cmdExecSP.exe&lt;/b&gt;" style="verticalLabelPosition=bottom;aspect=fixed;html=1;verticalAlign=top;strokeColor=none;align=center;outlineConnect=0;shape=mxgraph.citrix.process;fillColor=#00AAFF;fontSize=14;" parent="TTJFUgVjda8H5F1yxA_P-1" vertex="1">
          <mxGeometry x="530" y="410" width="52" height="62" as="geometry" />
        </mxCell>
        <mxCell id="TTJFUgVjda8H5F1yxA_P-16" value="Servidor de Base de DatosÂ " style="swimlane;fillColor=#00AAFF;fontSize=13;" parent="TTJFUgVjda8H5F1yxA_P-1" vertex="1">
          <mxGeometry x="680" y="280" width="280" height="210" as="geometry" />
        </mxCell>
        <mxCell id="TTJFUgVjda8H5F1yxA_P-21" style="edgeStyle=orthogonalEdgeStyle;rounded=1;orthogonalLoop=1;jettySize=auto;html=1;startArrow=none;startFill=0;fontSize=14;" parent="TTJFUgVjda8H5F1yxA_P-16" source="TTJFUgVjda8H5F1yxA_P-17" target="TTJFUgVjda8H5F1yxA_P-20" edge="1">
          <mxGeometry relative="1" as="geometry">
            <Array as="points">
              <mxPoint x="221" y="70" />
            </Array>
          </mxGeometry>
        </mxCell>
        <mxCell id="TTJFUgVjda8H5F1yxA_P-17" value="&lt;font style=&quot;font-size: 12px&quot;&gt;&lt;b&gt;TCREDITOPCI&lt;/b&gt;&lt;br&gt;IP: 10.16.0.106&lt;br&gt;Port: 5554&lt;br&gt;&lt;/font&gt;" style="verticalLabelPosition=bottom;aspect=fixed;html=1;verticalAlign=top;strokeColor=none;align=center;outlineConnect=0;shape=mxgraph.citrix.database_server;fillColor=#00AAFF;fontSize=14;" parent="TTJFUgVjda8H5F1yxA_P-16" vertex="1">
          <mxGeometry x="100" y="30" width="53.33" height="60" as="geometry" />
        </mxCell>
        <mxCell id="TTJFUgVjda8H5F1yxA_P-20" value="&lt;b&gt;&lt;font style=&quot;font-size: 12px&quot;&gt;nts_tarjcred&lt;/font&gt;&lt;/b&gt;" style="verticalLabelPosition=bottom;aspect=fixed;html=1;verticalAlign=top;strokeColor=none;align=center;outlineConnect=0;shape=mxgraph.citrix.database;fillColor=#00AAFF;fontSize=14;" parent="TTJFUgVjda8H5F1yxA_P-16" vertex="1">
          <mxGeometry x="200" y="110" width="42.5" height="50" as="geometry" />
        </mxCell>
        <mxCell id="TTJFUgVjda8H5F1yxA_P-29" value="Servidor de Componentes" style="swimlane;fillColor=#647687;fontSize=13;strokeColor=#314354;fontColor=#ffffff;" parent="TTJFUgVjda8H5F1yxA_P-1" vertex="1">
          <mxGeometry x="330" y="-240" width="330" height="230" as="geometry" />
        </mxCell>
        <mxCell id="TTJFUgVjda8H5F1yxA_P-30" value="&lt;b&gt;Syscards&lt;/b&gt;&lt;br&gt;&amp;nbsp;IP: 10.16.0.21" style="verticalLabelPosition=bottom;aspect=fixed;html=1;verticalAlign=top;strokeColor=none;align=center;outlineConnect=0;shape=mxgraph.citrix.command_center;fillColor=#00AAFF;fontSize=14;" parent="TTJFUgVjda8H5F1yxA_P-29" vertex="1">
          <mxGeometry x="130" y="100" width="55.05" height="70" as="geometry" />
        </mxCell>
        <mxCell id="TTJFUgVjda8H5F1yxA_P-43" value="" style="verticalLabelPosition=bottom;aspect=fixed;html=1;verticalAlign=top;strokeColor=none;align=center;outlineConnect=0;shape=mxgraph.citrix.process;fillColor=#00AAFF;fontSize=13;" parent="TTJFUgVjda8H5F1yxA_P-29" vertex="1">
          <mxGeometry x="270" y="80" width="33.55" height="40" as="geometry" />
        </mxCell>
        <mxCell id="TTJFUgVjda8H5F1yxA_P-35" value="Servidor de Base de DatosÂ " style="swimlane;fillColor=#a0522d;fontSize=13;strokeColor=#6D1F00;fontColor=#ffffff;" parent="TTJFUgVjda8H5F1yxA_P-1" vertex="1">
          <mxGeometry x="330" y="20" width="340" height="220" as="geometry" />
        </mxCell>
        <mxCell id="TTJFUgVjda8H5F1yxA_P-36" style="edgeStyle=orthogonalEdgeStyle;rounded=1;orthogonalLoop=1;jettySize=auto;html=1;startArrow=none;startFill=0;fontSize=14;" parent="TTJFUgVjda8H5F1yxA_P-35" source="TTJFUgVjda8H5F1yxA_P-37" target="TTJFUgVjda8H5F1yxA_P-38" edge="1">
          <mxGeometry relative="1" as="geometry" />
        </mxCell>
        <mxCell id="TTJFUgVjda8H5F1yxA_P-37" value="&lt;font style=&quot;font-size: 12px&quot;&gt;&lt;b&gt;TCREDITOPCI&lt;/b&gt;&lt;br&gt;IP: 10.16.0.106&lt;br&gt;Port: 5554&lt;br&gt;&lt;/font&gt;" style="verticalLabelPosition=bottom;aspect=fixed;html=1;verticalAlign=top;strokeColor=none;align=center;outlineConnect=0;shape=mxgraph.citrix.database_server;fillColor=#00AAFF;fontSize=14;" parent="TTJFUgVjda8H5F1yxA_P-35" vertex="1">
          <mxGeometry x="130" y="40" width="53.33" height="60" as="geometry" />
        </mxCell>
        <mxCell id="TTJFUgVjda8H5F1yxA_P-38" value="&lt;b&gt;&lt;font style=&quot;font-size: 12px&quot;&gt;nts_tarjcred&lt;/font&gt;&lt;/b&gt;" style="verticalLabelPosition=bottom;aspect=fixed;html=1;verticalAlign=top;strokeColor=none;align=center;outlineConnect=0;shape=mxgraph.citrix.database;fillColor=#00AAFF;fontSize=14;" parent="TTJFUgVjda8H5F1yxA_P-35" vertex="1">
          <mxGeometry x="30" y="140" width="42.5" height="50" as="geometry" />
        </mxCell>
        <mxCell id="vKQRPkdC_b0ZVz2tM-px-24" style="edgeStyle=orthogonalEdgeStyle;rounded=1;orthogonalLoop=1;jettySize=auto;html=1;startArrow=none;startFill=0;fontSize=13;" parent="TTJFUgVjda8H5F1yxA_P-1" source="vKQRPkdC_b0ZVz2tM-px-0" target="vKQRPkdC_b0ZVz2tM-px-23" edge="1">
          <mxGeometry relative="1" as="geometry" />
        </mxCell>
        <mxCell id="vKQRPkdC_b0ZVz2tM-px-0" value="&lt;font style=&quot;font-size: 12px&quot;&gt;&lt;b&gt;BA-BUS&lt;/b&gt;&lt;br&gt;IP: 10.16.0.47&lt;/font&gt;" style="verticalLabelPosition=bottom;aspect=fixed;html=1;verticalAlign=top;strokeColor=none;align=center;outlineConnect=0;shape=mxgraph.citrix.xenapp_services;fillColor=#00AAFF;fontSize=13;" parent="TTJFUgVjda8H5F1yxA_P-1" vertex="1">
          <mxGeometry x="900" y="-220" width="67.56" height="80" as="geometry" />
        </mxCell>
        <mxCell id="vKQRPkdC_b0ZVz2tM-px-17" value="" style="rounded=0;orthogonalLoop=1;jettySize=auto;html=1;endArrow=none;endFill=0;fontSize=13;" parent="TTJFUgVjda8H5F1yxA_P-1" target="vKQRPkdC_b0ZVz2tM-px-19" edge="1">
          <mxGeometry relative="1" as="geometry">
            <mxPoint x="728" y="-175" as="sourcePoint" />
          </mxGeometry>
        </mxCell>
        <mxCell id="vKQRPkdC_b0ZVz2tM-px-18" value="" style="rounded=0;orthogonalLoop=1;jettySize=auto;html=1;endArrow=halfCircle;endFill=0;entryX=0.5;entryY=0.5;entryDx=0;entryDy=0;endSize=6;strokeWidth=1;fontSize=13;" parent="TTJFUgVjda8H5F1yxA_P-1" target="vKQRPkdC_b0ZVz2tM-px-19" edge="1">
          <mxGeometry relative="1" as="geometry">
            <mxPoint x="768" y="-175" as="sourcePoint" />
          </mxGeometry>
        </mxCell>
        <mxCell id="vKQRPkdC_b0ZVz2tM-px-20" style="edgeStyle=orthogonalEdgeStyle;rounded=1;orthogonalLoop=1;jettySize=auto;html=1;entryX=0;entryY=0.563;entryDx=0;entryDy=0;entryPerimeter=0;startArrow=none;startFill=0;fontSize=13;" parent="TTJFUgVjda8H5F1yxA_P-1" source="vKQRPkdC_b0ZVz2tM-px-19" target="vKQRPkdC_b0ZVz2tM-px-0" edge="1">
          <mxGeometry relative="1" as="geometry" />
        </mxCell>
        <mxCell id="vKQRPkdC_b0ZVz2tM-px-19" value="" style="ellipse;whiteSpace=wrap;html=1;fontFamily=Helvetica;fontSize=12;fontColor=#000000;align=center;strokeColor=#000000;fillColor=#ffffff;points=[];aspect=fixed;resizable=0;" parent="TTJFUgVjda8H5F1yxA_P-1" vertex="1">
          <mxGeometry x="743" y="-180" width="10" height="10" as="geometry" />
        </mxCell>
        <mxCell id="vKQRPkdC_b0ZVz2tM-px-21" style="edgeStyle=orthogonalEdgeStyle;rounded=1;orthogonalLoop=1;jettySize=auto;html=1;entryX=0.2;entryY=0.5;entryDx=0;entryDy=0;entryPerimeter=0;startArrow=none;startFill=0;fontSize=13;" parent="TTJFUgVjda8H5F1yxA_P-1" source="TTJFUgVjda8H5F1yxA_P-30" target="vKQRPkdC_b0ZVz2tM-px-19" edge="1">
          <mxGeometry relative="1" as="geometry">
            <Array as="points">
              <mxPoint x="488" y="-175" />
            </Array>
          </mxGeometry>
        </mxCell>
        <mxCell id="vKQRPkdC_b0ZVz2tM-px-22" style="edgeStyle=orthogonalEdgeStyle;rounded=1;orthogonalLoop=1;jettySize=auto;html=1;startArrow=none;startFill=0;fontSize=13;" parent="TTJFUgVjda8H5F1yxA_P-1" source="TTJFUgVjda8H5F1yxA_P-30" target="TTJFUgVjda8H5F1yxA_P-37" edge="1">
          <mxGeometry relative="1" as="geometry" />
        </mxCell>
        <mxCell id="vKQRPkdC_b0ZVz2tM-px-23" value="&lt;b&gt;Servidor Z&lt;/b&gt;&lt;br&gt;IP: 10.1.1.7" style="verticalLabelPosition=bottom;aspect=fixed;html=1;verticalAlign=top;strokeColor=none;align=center;outlineConnect=0;shape=mxgraph.citrix.command_center;fillColor=#00AAFF;fontSize=13;" parent="TTJFUgVjda8H5F1yxA_P-1" vertex="1">
          <mxGeometry x="1050" y="-125" width="75.5" height="96" as="geometry" />
        </mxCell>
        <mxCell id="vKQRPkdC_b0ZVz2tM-px-31" value="Web Service Procesar" style="text;html=1;strokeColor=none;fillColor=none;align=center;verticalAlign=middle;whiteSpace=wrap;rounded=0;fontSize=13;" parent="TTJFUgVjda8H5F1yxA_P-1" vertex="1">
          <mxGeometry x="688" y="-162.5" width="120" height="20" as="geometry" />
        </mxCell>
        <mxCell id="0hwE6oVcHs1FL7hhpMqN-2" value="" style="group" parent="TTJFUgVjda8H5F1yxA_P-1" vertex="1" connectable="0">
          <mxGeometry x="84.5" y="10" width="145.5" height="140" as="geometry" />
        </mxCell>
        <mxCell id="0hwE6oVcHs1FL7hhpMqN-0" value="" style="whiteSpace=wrap;html=1;aspect=fixed;rounded=0;shadow=0;glass=0;comic=0;" parent="0hwE6oVcHs1FL7hhpMqN-2" vertex="1">
          <mxGeometry x="5.882749326145552" width="122.91077617030639" height="122.91077617030639" as="geometry" />
        </mxCell>
        <mxCell id="0hwE6oVcHs1FL7hhpMqN-1" value="" style="rounded=0;whiteSpace=wrap;html=1;shadow=0;glass=0;comic=0;fillColor=#BACDFF;strokeColor=#36393d;" parent="0hwE6oVcHs1FL7hhpMqN-2" vertex="1">
          <mxGeometry x="6" y="3.29" width="124" height="29.65" as="geometry" />
        </mxCell>
      </root>
    </mxGraphModel>
  </diagram>
  <diagram id="0S3ej4lVZhK3MT60w0mu" name="diagramaSecuencia">
    <mxGraphModel dx="868" dy="482" grid="1" gridSize="10" guides="1" tooltips="1" connect="1" arrows="1" fold="1" page="1" pageScale="1" pageWidth="827" pageHeight="1169" math="0" shadow="0">
      <root>
        <mxCell id="eI0KdaBDFSUmEPXoAsrA-0" />
        <mxCell id="eI0KdaBDFSUmEPXoAsrA-1" parent="eI0KdaBDFSUmEPXoAsrA-0" />
        <mxCell id="eI0KdaBDFSUmEPXoAsrA-17" value="" style="swimlane;fontSize=13;" parent="eI0KdaBDFSUmEPXoAsrA-1" vertex="1">
          <mxGeometry y="10" width="170" as="geometry" />
        </mxCell>
        <mxCell id="eI0KdaBDFSUmEPXoAsrA-5" value="&lt;b&gt;VMADSEGO1&lt;/b&gt;" style="shape=umlLifeline;participant=umlEntity;perimeter=lifelinePerimeter;whiteSpace=wrap;html=1;container=1;collapsible=0;recursiveResize=0;verticalAlign=top;spacingTop=36;labelBackgroundColor=#ffffff;outlineConnect=0;fillColor=#00AAFF;fontSize=13;" parent="eI0KdaBDFSUmEPXoAsrA-17" vertex="1">
          <mxGeometry x="440" y="40" width="40" height="310" as="geometry" />
        </mxCell>
        <mxCell id="eI0KdaBDFSUmEPXoAsrA-14" value="" style="html=1;points=[];perimeter=orthogonalPerimeter;fillColor=#00AAFF;fontSize=13;" parent="eI0KdaBDFSUmEPXoAsrA-5" vertex="1">
          <mxGeometry x="15" y="120" width="10" height="80" as="geometry" />
        </mxCell>
        <mxCell id="eI0KdaBDFSUmEPXoAsrA-11" value="&lt;b&gt;Browser Intranet&lt;/b&gt;" style="shape=umlLifeline;participant=umlEntity;perimeter=lifelinePerimeter;whiteSpace=wrap;html=1;container=1;collapsible=0;recursiveResize=0;verticalAlign=top;spacingTop=36;labelBackgroundColor=#ffffff;outlineConnect=0;fillColor=#00AAFF;fontSize=13;" parent="eI0KdaBDFSUmEPXoAsrA-17" vertex="1">
          <mxGeometry x="200" y="40" width="40" height="310" as="geometry" />
        </mxCell>
        <mxCell id="eI0KdaBDFSUmEPXoAsrA-12" value="" style="html=1;points=[];perimeter=orthogonalPerimeter;fillColor=#00AAFF;fontSize=13;" parent="eI0KdaBDFSUmEPXoAsrA-11" vertex="1">
          <mxGeometry x="10" y="90" width="10" height="80" as="geometry" />
        </mxCell>
        <mxCell id="eI0KdaBDFSUmEPXoAsrA-15" value="1: accesoWebBancoAustro:Reporte.xls" style="html=1;verticalAlign=bottom;startArrow=oval;endArrow=block;startSize=8;fontSize=13;" parent="eI0KdaBDFSUmEPXoAsrA-17" source="eI0KdaBDFSUmEPXoAsrA-12" target="eI0KdaBDFSUmEPXoAsrA-14" edge="1">
          <mxGeometry relative="1" as="geometry">
            <mxPoint x="280" y="135" as="sourcePoint" />
          </mxGeometry>
        </mxCell>
        <mxCell id="eI0KdaBDFSUmEPXoAsrA-20" value="2: service.webSiteReport(idReporte):Report.xls" style="html=1;verticalAlign=bottom;startArrow=oval;endArrow=block;startSize=8;fontSize=13;entryX=-0.2;entryY=0.057;entryDx=0;entryDy=0;entryPerimeter=0;" parent="eI0KdaBDFSUmEPXoAsrA-1" target="eI0KdaBDFSUmEPXoAsrA-19" edge="1">
          <mxGeometry x="0.0435" y="8" relative="1" as="geometry">
            <mxPoint x="480" y="208" as="sourcePoint" />
            <mxPoint x="720" y="208" as="targetPoint" />
            <mxPoint as="offset" />
          </mxGeometry>
        </mxCell>
        <mxCell id="eI0KdaBDFSUmEPXoAsrA-24" value="3:db.dbServicioReporte(cod):registro" style="html=1;verticalAlign=bottom;startArrow=oval;endArrow=block;startSize=8;fontSize=13;entryX=0.4;entryY=0.013;entryDx=0;entryDy=0;entryPerimeter=0;exitX=1.1;exitY=0.15;exitDx=0;exitDy=0;exitPerimeter=0;" parent="eI0KdaBDFSUmEPXoAsrA-1" source="eI0KdaBDFSUmEPXoAsrA-19" target="eI0KdaBDFSUmEPXoAsrA-23" edge="1">
          <mxGeometry relative="1" as="geometry">
            <mxPoint x="730" y="220" as="sourcePoint" />
          </mxGeometry>
        </mxCell>
        <mxCell id="eI0KdaBDFSUmEPXoAsrA-28" value="4: db.sp_sepConsOrdinarioExtraordinario(fechaIni,fechaFin,,tipo):registros" style="html=1;verticalAlign=bottom;startArrow=oval;endArrow=block;startSize=8;fontSize=13;exitX=1.5;exitY=0.643;exitDx=0;exitDy=0;exitPerimeter=0;" parent="eI0KdaBDFSUmEPXoAsrA-1" source="eI0KdaBDFSUmEPXoAsrA-19" target="eI0KdaBDFSUmEPXoAsrA-27" edge="1">
          <mxGeometry relative="1" as="geometry">
            <mxPoint x="790" y="290" as="sourcePoint" />
          </mxGeometry>
        </mxCell>
        <mxCell id="eI0KdaBDFSUmEPXoAsrA-31" value="Base de Datos" style="swimlane;fillColor=#76608a;fontSize=13;startSize=23;strokeColor=#432D57;fontColor=#ffffff;" parent="eI0KdaBDFSUmEPXoAsrA-1" vertex="1">
          <mxGeometry x="910" y="20" width="410" height="120" as="geometry" />
        </mxCell>
        <mxCell id="eI0KdaBDFSUmEPXoAsrA-22" value="&lt;b&gt;TCREDITOPCI&lt;/b&gt;" style="shape=umlLifeline;participant=umlEntity;perimeter=lifelinePerimeter;whiteSpace=wrap;html=1;container=1;collapsible=0;recursiveResize=0;verticalAlign=top;spacingTop=36;labelBackgroundColor=#ffffff;outlineConnect=0;fillColor=#00AAFF;fontSize=13;" parent="eI0KdaBDFSUmEPXoAsrA-31" vertex="1">
          <mxGeometry x="340" y="40" width="40" height="310" as="geometry" />
        </mxCell>
        <mxCell id="eI0KdaBDFSUmEPXoAsrA-27" value="" style="html=1;points=[];perimeter=orthogonalPerimeter;fillColor=#00AAFF;fontSize=13;" parent="eI0KdaBDFSUmEPXoAsrA-22" vertex="1">
          <mxGeometry x="15" y="230" width="10" height="80" as="geometry" />
        </mxCell>
        <mxCell id="eI0KdaBDFSUmEPXoAsrA-6" value="&lt;b&gt;BATRANSA&lt;/b&gt;" style="shape=umlLifeline;participant=umlEntity;perimeter=lifelinePerimeter;whiteSpace=wrap;html=1;container=1;collapsible=0;recursiveResize=0;verticalAlign=top;spacingTop=36;labelBackgroundColor=#ffffff;outlineConnect=0;fillColor=#00AAFF;fontSize=13;" parent="eI0KdaBDFSUmEPXoAsrA-31" vertex="1">
          <mxGeometry x="130" y="40" width="40" height="310" as="geometry" />
        </mxCell>
        <mxCell id="eI0KdaBDFSUmEPXoAsrA-23" value="" style="html=1;points=[];perimeter=orthogonalPerimeter;fillColor=#00AAFF;fontSize=13;" parent="eI0KdaBDFSUmEPXoAsrA-6" vertex="1">
          <mxGeometry x="15" y="160" width="10" height="40" as="geometry" />
        </mxCell>
        <mxCell id="eI0KdaBDFSUmEPXoAsrA-32" value="Negocio" style="swimlane;fillColor=#a0522d;fontSize=13;startSize=23;strokeColor=#6D1F00;fontColor=#ffffff;" parent="eI0KdaBDFSUmEPXoAsrA-1" vertex="1">
          <mxGeometry x="550" y="20" width="360" height="120" as="geometry" />
        </mxCell>
        <mxCell id="eI0KdaBDFSUmEPXoAsrA-9" value="&lt;b&gt;APPSERVERV3&lt;/b&gt;" style="shape=umlLifeline;participant=umlEntity;perimeter=lifelinePerimeter;whiteSpace=wrap;html=1;container=1;collapsible=0;recursiveResize=0;verticalAlign=top;spacingTop=36;labelBackgroundColor=#ffffff;outlineConnect=0;fillColor=#00AAFF;fontSize=13;" parent="eI0KdaBDFSUmEPXoAsrA-32" vertex="1">
          <mxGeometry x="190" y="40" width="40" height="310" as="geometry" />
        </mxCell>
        <mxCell id="eI0KdaBDFSUmEPXoAsrA-19" value="" style="html=1;points=[];perimeter=orthogonalPerimeter;fillColor=#00AAFF;fontSize=13;" parent="eI0KdaBDFSUmEPXoAsrA-9" vertex="1">
          <mxGeometry x="20" y="140" width="10" height="140" as="geometry" />
        </mxCell>
        <mxCell id="EIrCCyzFsjgz3aSE-Si0-9" value="&lt;font color=&quot;#000000&quot;&gt;0: accesoMenu&lt;/font&gt;" style="html=1;verticalAlign=bottom;endArrow=block;fontSize=13;fontColor=#ffffff;" parent="eI0KdaBDFSUmEPXoAsrA-1" source="eI0KdaBDFSUmEPXoAsrA-2" edge="1">
          <mxGeometry width="80" relative="1" as="geometry">
            <mxPoint x="140" y="180" as="sourcePoint" />
            <mxPoint x="210" y="180" as="targetPoint" />
          </mxGeometry>
        </mxCell>
        <mxCell id="eI0KdaBDFSUmEPXoAsrA-2" value="&lt;span style=&quot;background-color: rgb(248 , 249 , 250)&quot;&gt;Usuarios Estructuras&lt;/span&gt;&lt;br style=&quot;background-color: rgb(248 , 249 , 250)&quot;&gt;&lt;span style=&quot;background-color: rgb(248 , 249 , 250)&quot;&gt;y Reportes&lt;/span&gt;" style="shape=umlLifeline;participant=umlActor;perimeter=lifelinePerimeter;whiteSpace=wrap;html=1;container=1;collapsible=0;recursiveResize=0;verticalAlign=top;spacingTop=36;labelBackgroundColor=#ffffff;outlineConnect=0;fillColor=#00AAFF;fontSize=13;" parent="eI0KdaBDFSUmEPXoAsrA-1" vertex="1">
          <mxGeometry x="75" y="60" width="20" height="300" as="geometry" />
        </mxCell>
        <mxCell id="EIrCCyzFsjgz3aSE-Si0-10" value="Container" style="swimlane;fillColor=#bac8d3;strokeColor=#23445d;" parent="eI0KdaBDFSUmEPXoAsrA-1" vertex="1">
          <mxGeometry x="160" y="20" width="390" height="120" as="geometry" />
        </mxCell>
      </root>
    </mxGraphModel>
  </diagram>
  <diagram id="raIar6Oy_sBhNtsyvzyd" name="Page-5">
    <mxGraphModel dx="868" dy="482" grid="0" gridSize="10" guides="1" tooltips="1" connect="1" arrows="1" fold="1" page="1" pageScale="1" pageWidth="827" pageHeight="1169" math="0" shadow="0">
      <root>
        <mxCell id="ig3jODV-1ehJgUq_Fjee-0" />
        <mxCell id="ig3jODV-1ehJgUq_Fjee-1" parent="ig3jODV-1ehJgUq_Fjee-0" />
        <mxCell id="ig3jODV-1ehJgUq_Fjee-14" style="edgeStyle=orthogonalEdgeStyle;curved=1;rounded=1;orthogonalLoop=1;jettySize=auto;html=1;startArrow=classicThin;startFill=1;fontSize=13;" parent="ig3jODV-1ehJgUq_Fjee-1" source="ig3jODV-1ehJgUq_Fjee-63" target="ig3jODV-1ehJgUq_Fjee-13" edge="1">
          <mxGeometry relative="1" as="geometry" />
        </mxCell>
        <mxCell id="ig3jODV-1ehJgUq_Fjee-51" style="edgeStyle=orthogonalEdgeStyle;curved=1;rounded=1;orthogonalLoop=1;jettySize=auto;html=1;entryX=1;entryY=0.5;entryDx=0;entryDy=0;entryPerimeter=0;startArrow=none;startFill=0;fontSize=13;fontColor=#ffffff;" parent="ig3jODV-1ehJgUq_Fjee-1" source="ig3jODV-1ehJgUq_Fjee-3" target="ig3jODV-1ehJgUq_Fjee-50" edge="1">
          <mxGeometry relative="1" as="geometry" />
        </mxCell>
        <mxCell id="ig3jODV-1ehJgUq_Fjee-3" value="Browser Intrenet" style="verticalLabelPosition=bottom;aspect=fixed;html=1;verticalAlign=top;strokeColor=none;align=center;outlineConnect=0;shape=mxgraph.citrix.desktop;fillColor=#00AAFF;fontSize=13;" parent="ig3jODV-1ehJgUq_Fjee-1" vertex="1">
          <mxGeometry x="280" y="100" width="89" height="98" as="geometry" />
        </mxCell>
        <mxCell id="ig3jODV-1ehJgUq_Fjee-24" value="" style="edgeStyle=orthogonalEdgeStyle;curved=1;rounded=1;orthogonalLoop=1;jettySize=auto;html=1;startArrow=classicThin;startFill=1;fontSize=13;fontColor=#ffffff;" parent="ig3jODV-1ehJgUq_Fjee-1" source="ig3jODV-1ehJgUq_Fjee-13" target="ig3jODV-1ehJgUq_Fjee-23" edge="1">
          <mxGeometry relative="1" as="geometry" />
        </mxCell>
        <mxCell id="ig3jODV-1ehJgUq_Fjee-13" value="&lt;b&gt;VMADSEG01&lt;/b&gt;&lt;br&gt;Menu Intranet" style="verticalLabelPosition=bottom;aspect=fixed;html=1;verticalAlign=top;strokeColor=none;align=center;outlineConnect=0;shape=mxgraph.citrix.cache_server;fillColor=#00AAFF;fontSize=13;" parent="ig3jODV-1ehJgUq_Fjee-1" vertex="1">
          <mxGeometry x="504.5" y="100" width="71" height="97.5" as="geometry" />
        </mxCell>
        <mxCell id="ig3jODV-1ehJgUq_Fjee-37" style="edgeStyle=orthogonalEdgeStyle;curved=1;rounded=1;orthogonalLoop=1;jettySize=auto;html=1;startArrow=classic;startFill=1;fontSize=13;fontColor=#ffffff;" parent="ig3jODV-1ehJgUq_Fjee-1" source="ig3jODV-1ehJgUq_Fjee-61" target="ig3jODV-1ehJgUq_Fjee-25" edge="1">
          <mxGeometry relative="1" as="geometry" />
        </mxCell>
        <mxCell id="ig3jODV-1ehJgUq_Fjee-38" style="edgeStyle=orthogonalEdgeStyle;curved=1;rounded=1;orthogonalLoop=1;jettySize=auto;html=1;startArrow=classic;startFill=1;fontSize=13;fontColor=#ffffff;" parent="ig3jODV-1ehJgUq_Fjee-1" source="ig3jODV-1ehJgUq_Fjee-59" target="ig3jODV-1ehJgUq_Fjee-36" edge="1">
          <mxGeometry relative="1" as="geometry">
            <Array as="points">
              <mxPoint x="530" y="250" />
            </Array>
          </mxGeometry>
        </mxCell>
        <mxCell id="ig3jODV-1ehJgUq_Fjee-23" value="&lt;b&gt;APPSERVERV3&lt;br&gt;Contenedor de SiteReport&lt;br&gt;&lt;/b&gt;" style="verticalLabelPosition=bottom;aspect=fixed;html=1;verticalAlign=top;strokeColor=none;align=center;outlineConnect=0;shape=mxgraph.citrix.cache_server;fillColor=#00AAFF;fontSize=13;" parent="ig3jODV-1ehJgUq_Fjee-1" vertex="1">
          <mxGeometry x="700" y="100" width="71" height="97.5" as="geometry" />
        </mxCell>
        <mxCell id="ig3jODV-1ehJgUq_Fjee-22" value="" style="verticalLabelPosition=bottom;shadow=0;dashed=0;align=center;html=1;verticalAlign=top;strokeWidth=1;shape=mxgraph.mockup.markup.curlyBrace;strokeColor=#b85450;fillColor=#f8cecc;fontSize=13;rotation=-180;" parent="ig3jODV-1ehJgUq_Fjee-1" vertex="1">
          <mxGeometry x="260" y="70" width="100" height="20" as="geometry" />
        </mxCell>
        <mxCell id="ig3jODV-1ehJgUq_Fjee-25" value="&lt;font color=&quot;#000000&quot;&gt;&lt;b&gt;BATRANSA&lt;/b&gt;&lt;/font&gt;" style="verticalLabelPosition=bottom;aspect=fixed;html=1;verticalAlign=top;strokeColor=none;align=center;outlineConnect=0;shape=mxgraph.citrix.database_server;shadow=0;dashed=0;fillColor=#e51400;fontSize=13;fontColor=#ffffff;" parent="ig3jODV-1ehJgUq_Fjee-1" vertex="1">
          <mxGeometry x="695.5" y="310" width="80" height="90" as="geometry" />
        </mxCell>
        <mxCell id="ig3jODV-1ehJgUq_Fjee-36" value="&lt;font color=&quot;#000000&quot;&gt;&lt;b&gt;TCREDITOPCI&lt;/b&gt;&lt;/font&gt;" style="verticalLabelPosition=bottom;aspect=fixed;html=1;verticalAlign=top;strokeColor=none;align=center;outlineConnect=0;shape=mxgraph.citrix.database_server;shadow=0;dashed=0;fillColor=#e51400;fontSize=13;fontColor=#ffffff;" parent="ig3jODV-1ehJgUq_Fjee-1" vertex="1">
          <mxGeometry x="495.5" y="310" width="80" height="90" as="geometry" />
        </mxCell>
        <mxCell id="ig3jODV-1ehJgUq_Fjee-48" style="edgeStyle=orthogonalEdgeStyle;curved=1;rounded=1;orthogonalLoop=1;jettySize=auto;html=1;startArrow=none;startFill=0;fontSize=13;fontColor=#ffffff;" parent="ig3jODV-1ehJgUq_Fjee-1" source="ig3jODV-1ehJgUq_Fjee-47" target="ig3jODV-1ehJgUq_Fjee-3" edge="1">
          <mxGeometry relative="1" as="geometry" />
        </mxCell>
        <mxCell id="ig3jODV-1ehJgUq_Fjee-47" value="&lt;font color=&quot;#000000&quot;&gt;Usuarios Estructuras&lt;br&gt;y Reportes&lt;br&gt;&lt;/font&gt;" style="verticalLabelPosition=bottom;aspect=fixed;html=1;verticalAlign=top;strokeColor=none;align=center;outlineConnect=0;shape=mxgraph.citrix.users;shadow=0;dashed=0;fillColor=#e51400;fontSize=13;fontColor=#ffffff;" parent="ig3jODV-1ehJgUq_Fjee-1" vertex="1">
          <mxGeometry x="30" y="121.5" width="64.5" height="55" as="geometry" />
        </mxCell>
        <mxCell id="ig3jODV-1ehJgUq_Fjee-49" value="" style="verticalLabelPosition=bottom;aspect=fixed;html=1;verticalAlign=top;strokeColor=none;align=center;outlineConnect=0;shape=mxgraph.citrix.browser;shadow=0;dashed=0;fillColor=#e51400;fontSize=13;fontColor=#ffffff;" parent="ig3jODV-1ehJgUq_Fjee-1" vertex="1">
          <mxGeometry x="296.08" y="27.5" width="27.84" height="42.5" as="geometry" />
        </mxCell>
        <mxCell id="ig3jODV-1ehJgUq_Fjee-52" style="edgeStyle=orthogonalEdgeStyle;curved=1;rounded=1;orthogonalLoop=1;jettySize=auto;html=1;startArrow=none;startFill=0;fontSize=13;fontColor=#ffffff;" parent="ig3jODV-1ehJgUq_Fjee-1" source="ig3jODV-1ehJgUq_Fjee-50" target="ig3jODV-1ehJgUq_Fjee-47" edge="1">
          <mxGeometry relative="1" as="geometry" />
        </mxCell>
        <mxCell id="ig3jODV-1ehJgUq_Fjee-50" value="&lt;font color=&quot;#000000&quot;&gt;Reporte.xls&lt;/font&gt;" style="aspect=fixed;pointerEvents=1;shadow=0;dashed=0;html=1;strokeColor=none;labelPosition=center;verticalLabelPosition=bottom;verticalAlign=top;align=center;fillColor=#00188D;shape=mxgraph.azure.file;fontSize=13;fontColor=#ffffff;" parent="ig3jODV-1ehJgUq_Fjee-1" vertex="1">
          <mxGeometry x="160" y="70" width="28.2" height="30" as="geometry" />
        </mxCell>
        <mxCell id="ig3jODV-1ehJgUq_Fjee-59" value="Tuplas" style="verticalLabelPosition=bottom;shadow=0;dashed=0;align=center;html=1;verticalAlign=top;strokeWidth=1;shape=mxgraph.mockup.misc.mail2;strokeColor=#23445d;fillColor=#bac8d3;fontSize=13;" parent="ig3jODV-1ehJgUq_Fjee-1" vertex="1">
          <mxGeometry x="600" y="240" width="30" height="20" as="geometry" />
        </mxCell>
        <mxCell id="ig3jODV-1ehJgUq_Fjee-60" style="edgeStyle=orthogonalEdgeStyle;curved=1;rounded=1;orthogonalLoop=1;jettySize=auto;html=1;startArrow=classic;startFill=1;fontSize=13;fontColor=#ffffff;" parent="ig3jODV-1ehJgUq_Fjee-1" source="ig3jODV-1ehJgUq_Fjee-23" target="ig3jODV-1ehJgUq_Fjee-59" edge="1">
          <mxGeometry relative="1" as="geometry">
            <mxPoint x="735.5" y="197.5" as="sourcePoint" />
            <mxPoint x="530" y="310" as="targetPoint" />
            <Array as="points">
              <mxPoint x="736" y="250" />
            </Array>
          </mxGeometry>
        </mxCell>
        <mxCell id="ig3jODV-1ehJgUq_Fjee-61" value="Tupla" style="verticalLabelPosition=bottom;shadow=0;dashed=0;align=center;html=1;verticalAlign=top;strokeWidth=1;shape=mxgraph.mockup.misc.mail2;strokeColor=#23445d;fillColor=#bac8d3;fontSize=13;" parent="ig3jODV-1ehJgUq_Fjee-1" vertex="1">
          <mxGeometry x="720.5" y="250" width="30" height="20" as="geometry" />
        </mxCell>
        <mxCell id="ig3jODV-1ehJgUq_Fjee-62" style="edgeStyle=orthogonalEdgeStyle;curved=1;rounded=1;orthogonalLoop=1;jettySize=auto;html=1;startArrow=classic;startFill=1;fontSize=13;fontColor=#ffffff;" parent="ig3jODV-1ehJgUq_Fjee-1" source="ig3jODV-1ehJgUq_Fjee-23" target="ig3jODV-1ehJgUq_Fjee-61" edge="1">
          <mxGeometry relative="1" as="geometry">
            <mxPoint x="735.5" y="197.5" as="sourcePoint" />
            <mxPoint x="735.5" y="310" as="targetPoint" />
          </mxGeometry>
        </mxCell>
        <mxCell id="ig3jODV-1ehJgUq_Fjee-63" value="&lt;font color=&quot;#000000&quot;&gt;Reporte.xls&lt;/font&gt;" style="aspect=fixed;pointerEvents=1;shadow=0;dashed=0;html=1;strokeColor=none;labelPosition=center;verticalLabelPosition=bottom;verticalAlign=top;align=center;fillColor=#00188D;shape=mxgraph.azure.file;fontSize=13;fontColor=#ffffff;" parent="ig3jODV-1ehJgUq_Fjee-1" vertex="1">
          <mxGeometry x="420" y="134" width="28.2" height="30" as="geometry" />
        </mxCell>
        <mxCell id="ig3jODV-1ehJgUq_Fjee-64" style="edgeStyle=orthogonalEdgeStyle;curved=1;rounded=1;orthogonalLoop=1;jettySize=auto;html=1;startArrow=classicThin;startFill=1;fontSize=13;" parent="ig3jODV-1ehJgUq_Fjee-1" source="ig3jODV-1ehJgUq_Fjee-3" target="ig3jODV-1ehJgUq_Fjee-63" edge="1">
          <mxGeometry relative="1" as="geometry">
            <mxPoint x="369" y="149" as="sourcePoint" />
            <mxPoint x="504.5" y="148.79999999999995" as="targetPoint" />
          </mxGeometry>
        </mxCell>
      </root>
    </mxGraphModel>
  </diagram>
  <diagram id="rFKAfW2Hc1ZKANLVhLnH" name="Page-6">
    <mxGraphModel dx="868" dy="1602" grid="0" gridSize="10" guides="1" tooltips="1" connect="1" arrows="1" fold="1" page="1" pageScale="1" pageWidth="827" pageHeight="1169" math="0" shadow="0">
      <root>
        <mxCell id="n-oEhYGUJ6g5m5RCl5T1-0" />
        <mxCell id="n-oEhYGUJ6g5m5RCl5T1-1" parent="n-oEhYGUJ6g5m5RCl5T1-0" />
        <mxCell id="n-oEhYGUJ6g5m5RCl5T1-3" style="edgeStyle=orthogonalEdgeStyle;curved=1;rounded=1;orthogonalLoop=1;jettySize=auto;html=1;entryX=1;entryY=0.5;entryDx=0;entryDy=0;entryPerimeter=0;startArrow=none;startFill=0;fontSize=13;fontColor=#ffffff;" parent="n-oEhYGUJ6g5m5RCl5T1-1" source="n-oEhYGUJ6g5m5RCl5T1-4" target="n-oEhYGUJ6g5m5RCl5T1-17" edge="1">
          <mxGeometry relative="1" as="geometry" />
        </mxCell>
        <mxCell id="n-oEhYGUJ6g5m5RCl5T1-38" value="&lt;font color=&quot;#000000&quot;&gt;HTTP 80&lt;/font&gt;" style="edgeStyle=orthogonalEdgeStyle;curved=1;rounded=1;orthogonalLoop=1;jettySize=auto;html=1;startArrow=classicThin;startFill=1;fontSize=13;fontColor=#ffffff;" parent="n-oEhYGUJ6g5m5RCl5T1-1" source="n-oEhYGUJ6g5m5RCl5T1-4" target="n-oEhYGUJ6g5m5RCl5T1-6" edge="1">
          <mxGeometry x="0.1337" y="-11" relative="1" as="geometry">
            <mxPoint as="offset" />
          </mxGeometry>
        </mxCell>
        <mxCell id="n-oEhYGUJ6g5m5RCl5T1-4" value="Browser Intrenet" style="verticalLabelPosition=bottom;aspect=fixed;html=1;verticalAlign=top;strokeColor=none;align=center;outlineConnect=0;shape=mxgraph.citrix.desktop;fillColor=#00AAFF;fontSize=13;" parent="n-oEhYGUJ6g5m5RCl5T1-1" vertex="1">
          <mxGeometry x="290" y="100" width="89" height="98" as="geometry" />
        </mxCell>
        <mxCell id="n-oEhYGUJ6g5m5RCl5T1-5" value="" style="edgeStyle=orthogonalEdgeStyle;curved=1;rounded=1;orthogonalLoop=1;jettySize=auto;html=1;startArrow=classicThin;startFill=1;fontSize=13;fontColor=#ffffff;" parent="n-oEhYGUJ6g5m5RCl5T1-1" source="n-oEhYGUJ6g5m5RCl5T1-6" target="n-oEhYGUJ6g5m5RCl5T1-9" edge="1">
          <mxGeometry relative="1" as="geometry" />
        </mxCell>
        <mxCell id="n-oEhYGUJ6g5m5RCl5T1-6" value="&lt;b&gt;VMADSEG01&lt;/b&gt;&lt;br&gt;Menu Intranet&lt;br&gt;IP: 10.1.1.10" style="verticalLabelPosition=bottom;aspect=fixed;html=1;verticalAlign=top;strokeColor=none;align=center;outlineConnect=0;shape=mxgraph.citrix.cache_server;fillColor=#00AAFF;fontSize=13;" parent="n-oEhYGUJ6g5m5RCl5T1-1" vertex="1">
          <mxGeometry x="504.5" y="100" width="71" height="97.5" as="geometry" />
        </mxCell>
        <mxCell id="n-oEhYGUJ6g5m5RCl5T1-7" style="edgeStyle=orthogonalEdgeStyle;curved=1;rounded=1;orthogonalLoop=1;jettySize=auto;html=1;startArrow=classic;startFill=1;fontSize=13;fontColor=#ffffff;" parent="n-oEhYGUJ6g5m5RCl5T1-1" source="n-oEhYGUJ6g5m5RCl5T1-20" target="n-oEhYGUJ6g5m5RCl5T1-11" edge="1">
          <mxGeometry relative="1" as="geometry" />
        </mxCell>
        <mxCell id="n-oEhYGUJ6g5m5RCl5T1-26" style="edgeStyle=orthogonalEdgeStyle;curved=1;rounded=1;orthogonalLoop=1;jettySize=auto;html=1;startArrow=classicThin;startFill=1;fontSize=13;fontColor=#ffffff;" parent="n-oEhYGUJ6g5m5RCl5T1-1" source="n-oEhYGUJ6g5m5RCl5T1-9" target="n-oEhYGUJ6g5m5RCl5T1-25" edge="1">
          <mxGeometry relative="1" as="geometry" />
        </mxCell>
        <mxCell id="n-oEhYGUJ6g5m5RCl5T1-9" value="&lt;b&gt;APPSERVERV3&lt;br&gt;Contenedor de SiteReport&lt;br&gt;&lt;/b&gt;" style="verticalLabelPosition=bottom;aspect=fixed;html=1;verticalAlign=top;strokeColor=none;align=center;outlineConnect=0;shape=mxgraph.citrix.cache_server;fillColor=#00AAFF;fontSize=13;" parent="n-oEhYGUJ6g5m5RCl5T1-1" vertex="1">
          <mxGeometry x="700" y="100" width="71" height="97.5" as="geometry" />
        </mxCell>
        <mxCell id="n-oEhYGUJ6g5m5RCl5T1-31" style="edgeStyle=orthogonalEdgeStyle;curved=1;rounded=1;orthogonalLoop=1;jettySize=auto;html=1;startArrow=classicThin;startFill=1;fontSize=13;fontColor=#ffffff;" parent="n-oEhYGUJ6g5m5RCl5T1-1" source="n-oEhYGUJ6g5m5RCl5T1-11" target="n-oEhYGUJ6g5m5RCl5T1-30" edge="1">
          <mxGeometry relative="1" as="geometry" />
        </mxCell>
        <mxCell id="n-oEhYGUJ6g5m5RCl5T1-11" value="&lt;font color=&quot;#000000&quot;&gt;&lt;b&gt;TCREDITOPCI&lt;/b&gt;&lt;br&gt;&lt;b&gt;IP: 10.16.0.106&lt;/b&gt;&lt;br&gt;&lt;b&gt;PORT: 56964&lt;/b&gt;&lt;br&gt;&lt;/font&gt;" style="verticalLabelPosition=bottom;aspect=fixed;html=1;verticalAlign=top;strokeColor=none;align=center;outlineConnect=0;shape=mxgraph.citrix.database_server;shadow=0;dashed=0;fillColor=#e51400;fontSize=13;fontColor=#ffffff;" parent="n-oEhYGUJ6g5m5RCl5T1-1" vertex="1">
          <mxGeometry x="520" y="285" width="80" height="90" as="geometry" />
        </mxCell>
        <mxCell id="n-oEhYGUJ6g5m5RCl5T1-13" style="edgeStyle=orthogonalEdgeStyle;curved=1;rounded=1;orthogonalLoop=1;jettySize=auto;html=1;startArrow=none;startFill=0;fontSize=13;fontColor=#ffffff;" parent="n-oEhYGUJ6g5m5RCl5T1-1" source="n-oEhYGUJ6g5m5RCl5T1-14" target="n-oEhYGUJ6g5m5RCl5T1-4" edge="1">
          <mxGeometry relative="1" as="geometry" />
        </mxCell>
        <mxCell id="n-oEhYGUJ6g5m5RCl5T1-14" value="&lt;font color=&quot;#000000&quot;&gt;Usuarios Estructuras&lt;br&gt;y Reportes&lt;br&gt;&lt;/font&gt;" style="verticalLabelPosition=bottom;aspect=fixed;html=1;verticalAlign=top;strokeColor=none;align=center;outlineConnect=0;shape=mxgraph.citrix.users;shadow=0;dashed=0;fillColor=#e51400;fontSize=13;fontColor=#ffffff;" parent="n-oEhYGUJ6g5m5RCl5T1-1" vertex="1">
          <mxGeometry x="30" y="121.5" width="64.5" height="55" as="geometry" />
        </mxCell>
        <mxCell id="n-oEhYGUJ6g5m5RCl5T1-16" style="edgeStyle=orthogonalEdgeStyle;curved=1;rounded=1;orthogonalLoop=1;jettySize=auto;html=1;startArrow=none;startFill=0;fontSize=13;fontColor=#ffffff;" parent="n-oEhYGUJ6g5m5RCl5T1-1" source="n-oEhYGUJ6g5m5RCl5T1-17" target="n-oEhYGUJ6g5m5RCl5T1-14" edge="1">
          <mxGeometry relative="1" as="geometry" />
        </mxCell>
        <mxCell id="n-oEhYGUJ6g5m5RCl5T1-17" value="&lt;font color=&quot;#000000&quot;&gt;Reporte.xls&lt;/font&gt;" style="aspect=fixed;pointerEvents=1;shadow=0;dashed=0;html=1;strokeColor=none;labelPosition=center;verticalLabelPosition=bottom;verticalAlign=top;align=center;fillColor=#00188D;shape=mxgraph.azure.file;fontSize=13;fontColor=#ffffff;" parent="n-oEhYGUJ6g5m5RCl5T1-1" vertex="1">
          <mxGeometry x="160" y="70" width="28.2" height="30" as="geometry" />
        </mxCell>
        <mxCell id="n-oEhYGUJ6g5m5RCl5T1-20" value="Tupla" style="verticalLabelPosition=bottom;shadow=0;dashed=0;align=center;html=1;verticalAlign=top;strokeWidth=1;shape=mxgraph.mockup.misc.mail2;strokeColor=#23445d;fillColor=#bac8d3;fontSize=13;" parent="n-oEhYGUJ6g5m5RCl5T1-1" vertex="1">
          <mxGeometry x="720.5" y="320" width="30" height="20" as="geometry" />
        </mxCell>
        <mxCell id="n-oEhYGUJ6g5m5RCl5T1-21" style="edgeStyle=orthogonalEdgeStyle;curved=1;rounded=1;orthogonalLoop=1;jettySize=auto;html=1;startArrow=classic;startFill=1;fontSize=13;fontColor=#ffffff;" parent="n-oEhYGUJ6g5m5RCl5T1-1" source="n-oEhYGUJ6g5m5RCl5T1-9" target="n-oEhYGUJ6g5m5RCl5T1-20" edge="1">
          <mxGeometry relative="1" as="geometry">
            <mxPoint x="735.5" y="197.5" as="sourcePoint" />
            <mxPoint x="735.5" y="310" as="targetPoint" />
          </mxGeometry>
        </mxCell>
        <mxCell id="n-oEhYGUJ6g5m5RCl5T1-35" style="edgeStyle=orthogonalEdgeStyle;curved=1;rounded=1;orthogonalLoop=1;jettySize=auto;html=1;startArrow=classicThin;startFill=1;fontSize=13;fontColor=#ffffff;" parent="n-oEhYGUJ6g5m5RCl5T1-1" source="n-oEhYGUJ6g5m5RCl5T1-24" target="n-oEhYGUJ6g5m5RCl5T1-34" edge="1">
          <mxGeometry relative="1" as="geometry" />
        </mxCell>
        <mxCell id="n-oEhYGUJ6g5m5RCl5T1-24" value="&lt;font color=&quot;#000000&quot;&gt;&lt;b&gt;BATRANSA&lt;/b&gt;&lt;br&gt;IP: 10.1.1.141&lt;br&gt;Port: 54234&lt;br&gt;&lt;/font&gt;" style="verticalLabelPosition=bottom;aspect=fixed;html=1;verticalAlign=top;strokeColor=none;align=center;outlineConnect=0;shape=mxgraph.citrix.database_server;shadow=0;dashed=0;fillColor=#e51400;fontSize=13;fontColor=#ffffff;" parent="n-oEhYGUJ6g5m5RCl5T1-1" vertex="1">
          <mxGeometry x="500" y="-85" width="80" height="90" as="geometry" />
        </mxCell>
        <mxCell id="n-oEhYGUJ6g5m5RCl5T1-27" style="edgeStyle=orthogonalEdgeStyle;curved=1;rounded=1;orthogonalLoop=1;jettySize=auto;html=1;startArrow=classicThin;startFill=1;fontSize=13;fontColor=#ffffff;" parent="n-oEhYGUJ6g5m5RCl5T1-1" source="n-oEhYGUJ6g5m5RCl5T1-25" target="n-oEhYGUJ6g5m5RCl5T1-24" edge="1">
          <mxGeometry relative="1" as="geometry" />
        </mxCell>
        <mxCell id="n-oEhYGUJ6g5m5RCl5T1-25" value="Tupla" style="verticalLabelPosition=bottom;shadow=0;dashed=0;align=center;html=1;verticalAlign=top;strokeWidth=1;shape=mxgraph.mockup.misc.mail2;strokeColor=#23445d;fillColor=#bac8d3;fontSize=13;" parent="n-oEhYGUJ6g5m5RCl5T1-1" vertex="1">
          <mxGeometry x="720.5" y="-50" width="30" height="20" as="geometry" />
        </mxCell>
        <mxCell id="n-oEhYGUJ6g5m5RCl5T1-30" value="&lt;font color=&quot;#000000&quot;&gt;&lt;b&gt;nts_procesos&lt;/b&gt;&lt;br&gt;&lt;b&gt;sp:&lt;/b&gt; sp_sepConsOrdinarioExtraordinario&lt;br&gt;&lt;/font&gt;" style="verticalLabelPosition=bottom;aspect=fixed;html=1;verticalAlign=top;strokeColor=none;align=center;outlineConnect=0;shape=mxgraph.citrix.database;shadow=0;dashed=0;fillColor=#e51400;fontSize=13;fontColor=#ffffff;" parent="n-oEhYGUJ6g5m5RCl5T1-1" vertex="1">
          <mxGeometry x="336.5" y="305" width="42.5" height="50" as="geometry" />
        </mxCell>
        <mxCell id="n-oEhYGUJ6g5m5RCl5T1-34" value="&lt;font color=&quot;#000000&quot;&gt;&lt;b&gt;ba_reportes&lt;/b&gt;&lt;/font&gt;" style="verticalLabelPosition=bottom;aspect=fixed;html=1;verticalAlign=top;strokeColor=none;align=center;outlineConnect=0;shape=mxgraph.citrix.database;shadow=0;dashed=0;fillColor=#e51400;fontSize=13;fontColor=#ffffff;" parent="n-oEhYGUJ6g5m5RCl5T1-1" vertex="1">
          <mxGeometry x="350" y="-65" width="42.5" height="50" as="geometry" />
        </mxCell>
        <mxCell id="piX8r5ao_LAcXFnVQABn-0" value="Text" style="text;html=1;align=center;verticalAlign=middle;resizable=0;points=[];autosize=1;" parent="n-oEhYGUJ6g5m5RCl5T1-1" vertex="1">
          <mxGeometry x="165" y="167" width="32" height="18" as="geometry" />
        </mxCell>
      </root>
    </mxGraphModel>
  </diagram>
</mxfile>
